<svg xmlns="http://www.w3.org/2000/svg" class="navigate__logo" width="152" height="24" viewBox="0 0 152 24" fill="none">
            <path d="M11 4.2L0 8.4V12.2 15.9L11 19.9C17 22.1 22 23.9 22.1 23.9 22.2 23.9 22.3 22.2 22.2 20.2L22.2 16.5 16.2 14.4C12.9 13.3 10.1 12.3 10.1 12.2 9.9 12.1 21.5 7.6 22 7.6 22.1 7.6 23.6 9.1 25.2 11 26.9 12.9 30.1 16.6 32.4 19.1 34.6 21.7 36.5 23.8 36.6 23.8 36.7 23.9 41.7 22 47.7 19.7L58.7 15.5V11.8 8L47.7 4C41.7 1.8 36.7 0 36.7 0 36.6 0 36.6 1.7 36.6 3.7L36.6 7.5 42.6 9.5C45.9 10.7 48.6 11.7 48.7 11.7 48.7 11.8 46.5 12.7 43.7 13.8 41 14.8 38.2 15.9 37.7 16.1L36.7 16.5 29.4 8.2C25.4 3.7 22.1 0 22.1 0 22 0 17 1.9 11 4.2ZM68.4 12.8V23.5H70.9 73.3L73.4 17 73.5 10.5 77.6 17 81.7 23.5 84.2 23.5 86.6 23.5V12.8 2.2H84.2 81.8L81.8 8.7 81.7 15.3 77.6 8.8 73.4 2.3 70.9 2.2 68.4 2.2V12.8ZM93.2 10.2C91.7 10.7 89.9 12.5 89.3 14.1 88.7 15.9 88.7 18.5 89.5 20 90.6 22.3 92.9 23.9 95.3 23.9 96.6 23.9 97.6 23.6 98.8 22.8L99.9 22.2V22.8 23.5H102.2 104.4V16.8 10.2H102.2 99.9V10.8C99.9 11.4 99.8 11.4 99.1 10.9 97.7 9.8 95.2 9.5 93.2 10.2ZM114.4 10.1C113.9 10.2 113.2 10.6 112.8 11L112 11.5V10.9 10.2H109.8 107.5V16.8 23.5H109.8 112V19.5C112 15.7 112.1 15.5 112.5 14.8 113.5 13.3 115.1 13 116.3 14.2L117 15V19.2 23.5H119.4 121.8V19.1C121.8 16.8 121.7 14.3 121.6 13.7 121.3 12.3 120.2 11 118.8 10.4 117.6 9.8 115.4 9.7 114.4 10.1ZM129.3 10.1C126.9 10.7 125.2 12.1 124.2 14 123.5 15.5 123.5 18.1 124.2 19.7 125.3 22.2 127.7 23.7 130.9 23.9 134.8 24.1 137.6 22.5 139 19.5 139.5 18.3 139.6 15.9 139.1 14.4 138.5 12.9 136.7 11.1 135 10.4 133.4 9.8 130.8 9.7 129.3 10.1ZM145 10.1C142.7 10.7 141.6 12 141.6 14.2 141.6 16 142.2 16.7 144.8 18 146.6 18.9 146.9 19.1 147 19.6 147 20.1 147 20.2 146.5 20.3 145.6 20.6 144.5 20.3 143.5 19.7 143.1 19.4 142.6 19.1 142.5 19.1 142.4 19.1 141.9 19.8 141.4 20.7L140.5 22.2 141 22.5C142.6 23.5 143.6 23.8 145.9 23.8 147.3 23.8 148.6 23.7 149 23.5 151.5 22.6 152.7 20 151.6 17.7 151.1 16.6 150.1 15.9 148 15.1 146.2 14.5 145.7 14.1 146.1 13.5 146.4 13 147.6 12.9 149.1 13.4L150.3 13.8 151.1 12.3 151.8 10.8 151 10.5C149.3 9.8 146.8 9.6 145 10.1ZM95.6 14C94.4 14.5 93.9 15.3 93.8 16.7 93.7 18.2 94.2 19.1 95.4 19.6 97.9 20.8 100.5 18.6 99.7 15.9 99.2 14.3 97.1 13.3 95.6 14ZM130.4 14C129.2 14.5 128.7 15.3 128.6 16.7 128.5 18.2 129 19.1 130.1 19.6 132.7 20.8 135.3 18.6 134.4 15.9 134 14.3 131.9 13.3 130.4 14Z" style="clip-rule:evenodd;fill-rule:evenodd;fill:white"></path>
        </svg>